<mxfile host="app.diagrams.net" modified="2024-02-18T08:55:01.400Z" agent="Mozilla/5.0 (Windows NT 10.0; Win64; x64) AppleWebKit/537.36 (KHTML, like Gecko) Chrome/121.0.0.0 Safari/537.36 Edg/121.0.0.0" etag="6EcUKgI61U74vhoCQ_It" version="23.1.1" type="github">
  <diagram name="第 1 页" id="1rjdugY5C8qaAusUiW6h">
    <mxGraphModel dx="899" dy="926" grid="1" gridSize="10" guides="1" tooltips="1" connect="1" arrows="1" fold="1" page="1" pageScale="1" pageWidth="827" pageHeight="1169" math="0" shadow="0">
      <root>
        <mxCell id="0" />
        <mxCell id="1" parent="0" />
        <mxCell id="Nt39PZyozITzQ0mVq2fc-1" value="struct rtnl_link_ops vxlan_link_ops;" style="rounded=1;whiteSpace=wrap;html=1;" vertex="1" parent="1">
          <mxGeometry y="40" width="200" height="40" as="geometry" />
        </mxCell>
        <mxCell id="Nt39PZyozITzQ0mVq2fc-5" style="edgeStyle=orthogonalEdgeStyle;rounded=1;orthogonalLoop=1;jettySize=auto;html=1;exitX=0.25;exitY=1;exitDx=0;exitDy=0;entryX=0;entryY=0.5;entryDx=0;entryDy=0;curved=0;" edge="1" parent="1" source="Nt39PZyozITzQ0mVq2fc-2" target="Nt39PZyozITzQ0mVq2fc-3">
          <mxGeometry relative="1" as="geometry" />
        </mxCell>
        <mxCell id="Nt39PZyozITzQ0mVq2fc-6" style="edgeStyle=orthogonalEdgeStyle;shape=connector;curved=0;rounded=1;orthogonalLoop=1;jettySize=auto;html=1;exitX=0.25;exitY=1;exitDx=0;exitDy=0;entryX=0;entryY=0.5;entryDx=0;entryDy=0;labelBackgroundColor=default;strokeColor=default;align=center;verticalAlign=middle;fontFamily=Helvetica;fontSize=11;fontColor=default;endArrow=classic;" edge="1" parent="1" source="Nt39PZyozITzQ0mVq2fc-2" target="Nt39PZyozITzQ0mVq2fc-4">
          <mxGeometry relative="1" as="geometry" />
        </mxCell>
        <mxCell id="Nt39PZyozITzQ0mVq2fc-2" value="vxlan_newlink" style="rounded=1;whiteSpace=wrap;html=1;" vertex="1" parent="1">
          <mxGeometry y="160" width="120" height="40" as="geometry" />
        </mxCell>
        <mxCell id="Nt39PZyozITzQ0mVq2fc-3" value="vxlan_nl2conf" style="rounded=1;whiteSpace=wrap;html=1;" vertex="1" parent="1">
          <mxGeometry x="70" y="220" width="120" height="40" as="geometry" />
        </mxCell>
        <mxCell id="Nt39PZyozITzQ0mVq2fc-9" style="edgeStyle=orthogonalEdgeStyle;shape=connector;curved=0;rounded=1;orthogonalLoop=1;jettySize=auto;html=1;exitX=0.25;exitY=1;exitDx=0;exitDy=0;entryX=0;entryY=0.5;entryDx=0;entryDy=0;labelBackgroundColor=default;strokeColor=default;align=center;verticalAlign=middle;fontFamily=Helvetica;fontSize=11;fontColor=default;endArrow=classic;" edge="1" parent="1" source="Nt39PZyozITzQ0mVq2fc-4" target="Nt39PZyozITzQ0mVq2fc-7">
          <mxGeometry relative="1" as="geometry" />
        </mxCell>
        <mxCell id="Nt39PZyozITzQ0mVq2fc-10" style="edgeStyle=orthogonalEdgeStyle;shape=connector;curved=0;rounded=1;orthogonalLoop=1;jettySize=auto;html=1;exitX=0.25;exitY=1;exitDx=0;exitDy=0;entryX=0;entryY=0.5;entryDx=0;entryDy=0;labelBackgroundColor=default;strokeColor=default;align=center;verticalAlign=middle;fontFamily=Helvetica;fontSize=11;fontColor=default;endArrow=classic;" edge="1" parent="1" source="Nt39PZyozITzQ0mVq2fc-4" target="Nt39PZyozITzQ0mVq2fc-8">
          <mxGeometry relative="1" as="geometry" />
        </mxCell>
        <mxCell id="Nt39PZyozITzQ0mVq2fc-16" style="edgeStyle=orthogonalEdgeStyle;shape=connector;curved=0;rounded=1;orthogonalLoop=1;jettySize=auto;html=1;exitX=0.25;exitY=1;exitDx=0;exitDy=0;entryX=0;entryY=0.5;entryDx=0;entryDy=0;labelBackgroundColor=default;strokeColor=default;align=center;verticalAlign=middle;fontFamily=Helvetica;fontSize=11;fontColor=default;endArrow=classic;" edge="1" parent="1" source="Nt39PZyozITzQ0mVq2fc-4" target="Nt39PZyozITzQ0mVq2fc-12">
          <mxGeometry relative="1" as="geometry" />
        </mxCell>
        <mxCell id="Nt39PZyozITzQ0mVq2fc-21" style="edgeStyle=orthogonalEdgeStyle;shape=connector;curved=0;rounded=1;orthogonalLoop=1;jettySize=auto;html=1;exitX=0.25;exitY=1;exitDx=0;exitDy=0;entryX=0;entryY=0.5;entryDx=0;entryDy=0;labelBackgroundColor=default;strokeColor=default;align=center;verticalAlign=middle;fontFamily=Helvetica;fontSize=11;fontColor=default;endArrow=classic;" edge="1" parent="1" source="Nt39PZyozITzQ0mVq2fc-4" target="Nt39PZyozITzQ0mVq2fc-18">
          <mxGeometry relative="1" as="geometry" />
        </mxCell>
        <mxCell id="Nt39PZyozITzQ0mVq2fc-22" style="edgeStyle=orthogonalEdgeStyle;shape=connector;curved=0;rounded=1;orthogonalLoop=1;jettySize=auto;html=1;exitX=0.25;exitY=1;exitDx=0;exitDy=0;entryX=0;entryY=0.5;entryDx=0;entryDy=0;labelBackgroundColor=default;strokeColor=default;align=center;verticalAlign=middle;fontFamily=Helvetica;fontSize=11;fontColor=default;endArrow=classic;" edge="1" parent="1" source="Nt39PZyozITzQ0mVq2fc-4" target="Nt39PZyozITzQ0mVq2fc-19">
          <mxGeometry relative="1" as="geometry" />
        </mxCell>
        <mxCell id="Nt39PZyozITzQ0mVq2fc-23" style="edgeStyle=orthogonalEdgeStyle;shape=connector;curved=0;rounded=1;orthogonalLoop=1;jettySize=auto;html=1;exitX=0.25;exitY=1;exitDx=0;exitDy=0;entryX=0;entryY=0.5;entryDx=0;entryDy=0;labelBackgroundColor=default;strokeColor=default;align=center;verticalAlign=middle;fontFamily=Helvetica;fontSize=11;fontColor=default;endArrow=classic;" edge="1" parent="1" source="Nt39PZyozITzQ0mVq2fc-4" target="Nt39PZyozITzQ0mVq2fc-20">
          <mxGeometry relative="1" as="geometry" />
        </mxCell>
        <mxCell id="Nt39PZyozITzQ0mVq2fc-25" style="edgeStyle=orthogonalEdgeStyle;shape=connector;curved=0;rounded=1;orthogonalLoop=1;jettySize=auto;html=1;exitX=0.25;exitY=1;exitDx=0;exitDy=0;entryX=0;entryY=0.5;entryDx=0;entryDy=0;labelBackgroundColor=default;strokeColor=default;align=center;verticalAlign=middle;fontFamily=Helvetica;fontSize=11;fontColor=default;endArrow=classic;" edge="1" parent="1" source="Nt39PZyozITzQ0mVq2fc-4" target="Nt39PZyozITzQ0mVq2fc-24">
          <mxGeometry relative="1" as="geometry" />
        </mxCell>
        <mxCell id="Nt39PZyozITzQ0mVq2fc-4" value="__vxlan_dev_create" style="rounded=1;whiteSpace=wrap;html=1;" vertex="1" parent="1">
          <mxGeometry x="70" y="280" width="120" height="40" as="geometry" />
        </mxCell>
        <mxCell id="Nt39PZyozITzQ0mVq2fc-7" value="vxlan_dev_configure" style="rounded=1;whiteSpace=wrap;html=1;" vertex="1" parent="1">
          <mxGeometry x="140" y="340" width="120" height="40" as="geometry" />
        </mxCell>
        <mxCell id="Nt39PZyozITzQ0mVq2fc-14" style="edgeStyle=orthogonalEdgeStyle;shape=connector;curved=0;rounded=1;orthogonalLoop=1;jettySize=auto;html=1;exitX=0.25;exitY=1;exitDx=0;exitDy=0;entryX=0;entryY=0.5;entryDx=0;entryDy=0;labelBackgroundColor=default;strokeColor=default;align=center;verticalAlign=middle;fontFamily=Helvetica;fontSize=11;fontColor=default;endArrow=classic;" edge="1" parent="1" source="Nt39PZyozITzQ0mVq2fc-8" target="Nt39PZyozITzQ0mVq2fc-13">
          <mxGeometry relative="1" as="geometry" />
        </mxCell>
        <mxCell id="Nt39PZyozITzQ0mVq2fc-8" value="设置ethtool_ops为vxlan_ethtool_ops" style="rounded=1;whiteSpace=wrap;html=1;" vertex="1" parent="1">
          <mxGeometry x="140" y="400" width="210" height="40" as="geometry" />
        </mxCell>
        <mxCell id="Nt39PZyozITzQ0mVq2fc-11" value="vxlan_fdb_create" style="rounded=1;whiteSpace=wrap;html=1;" vertex="1" parent="1">
          <mxGeometry x="350" y="520" width="120" height="40" as="geometry" />
        </mxCell>
        <mxCell id="Nt39PZyozITzQ0mVq2fc-12" value="register_netdevice" style="rounded=1;whiteSpace=wrap;html=1;" vertex="1" parent="1">
          <mxGeometry x="140" y="580" width="120" height="40" as="geometry" />
        </mxCell>
        <mxCell id="Nt39PZyozITzQ0mVq2fc-15" style="edgeStyle=orthogonalEdgeStyle;shape=connector;curved=0;rounded=1;orthogonalLoop=1;jettySize=auto;html=1;exitX=0.5;exitY=1;exitDx=0;exitDy=0;entryX=0;entryY=0.5;entryDx=0;entryDy=0;labelBackgroundColor=default;strokeColor=default;align=center;verticalAlign=middle;fontFamily=Helvetica;fontSize=11;fontColor=default;endArrow=classic;" edge="1" parent="1" source="Nt39PZyozITzQ0mVq2fc-13" target="Nt39PZyozITzQ0mVq2fc-11">
          <mxGeometry relative="1" as="geometry" />
        </mxCell>
        <mxCell id="Nt39PZyozITzQ0mVq2fc-13" value="!vxlan_addr_any(&lt;br&gt;&amp;amp;dst-&amp;gt;remote_ip)" style="rhombus;whiteSpace=wrap;html=1;fontFamily=Helvetica;fontSize=11;fontColor=default;" vertex="1" parent="1">
          <mxGeometry x="230" y="460" width="170" height="40" as="geometry" />
        </mxCell>
        <mxCell id="Nt39PZyozITzQ0mVq2fc-17" value="目的地址有效，创建fdb表项" style="text;html=1;align=center;verticalAlign=middle;resizable=0;points=[];autosize=1;strokeColor=none;fillColor=none;fontSize=11;fontFamily=Helvetica;fontColor=default;" vertex="1" parent="1">
          <mxGeometry x="400" y="465" width="160" height="30" as="geometry" />
        </mxCell>
        <mxCell id="Nt39PZyozITzQ0mVq2fc-18" value="rtnl_configure_link" style="rounded=1;whiteSpace=wrap;html=1;" vertex="1" parent="1">
          <mxGeometry x="140" y="640" width="120" height="40" as="geometry" />
        </mxCell>
        <mxCell id="Nt39PZyozITzQ0mVq2fc-19" value="vxlan_fdb_insert" style="rounded=1;whiteSpace=wrap;html=1;" vertex="1" parent="1">
          <mxGeometry x="140" y="700" width="120" height="40" as="geometry" />
        </mxCell>
        <mxCell id="Nt39PZyozITzQ0mVq2fc-20" value="vxlan设备加入到vxlan_net中管理" style="rounded=1;whiteSpace=wrap;html=1;" vertex="1" parent="1">
          <mxGeometry x="140" y="820" width="180" height="40" as="geometry" />
        </mxCell>
        <mxCell id="Nt39PZyozITzQ0mVq2fc-24" value="vxlan_fdb_notify" style="rounded=1;whiteSpace=wrap;html=1;" vertex="1" parent="1">
          <mxGeometry x="140" y="760" width="120" height="40" as="geometry" />
        </mxCell>
        <mxCell id="Nt39PZyozITzQ0mVq2fc-30" style="edgeStyle=orthogonalEdgeStyle;shape=connector;curved=0;rounded=1;orthogonalLoop=1;jettySize=auto;html=1;exitX=0.25;exitY=1;exitDx=0;exitDy=0;entryX=0;entryY=0.5;entryDx=0;entryDy=0;labelBackgroundColor=default;strokeColor=default;align=center;verticalAlign=middle;fontFamily=Helvetica;fontSize=11;fontColor=default;endArrow=classic;" edge="1" parent="1" source="Nt39PZyozITzQ0mVq2fc-26" target="Nt39PZyozITzQ0mVq2fc-27">
          <mxGeometry relative="1" as="geometry" />
        </mxCell>
        <mxCell id="Nt39PZyozITzQ0mVq2fc-26" value="vxlan_xmit" style="rounded=1;whiteSpace=wrap;html=1;" vertex="1" parent="1">
          <mxGeometry x="680" y="160" width="120" height="40" as="geometry" />
        </mxCell>
        <mxCell id="Nt39PZyozITzQ0mVq2fc-31" style="edgeStyle=orthogonalEdgeStyle;shape=connector;curved=0;rounded=1;orthogonalLoop=1;jettySize=auto;html=1;exitX=0.25;exitY=1;exitDx=0;exitDy=0;entryX=0;entryY=0.5;entryDx=0;entryDy=0;labelBackgroundColor=default;strokeColor=default;align=center;verticalAlign=middle;fontFamily=Helvetica;fontSize=11;fontColor=default;endArrow=classic;" edge="1" parent="1" source="Nt39PZyozITzQ0mVq2fc-27" target="Nt39PZyozITzQ0mVq2fc-28">
          <mxGeometry relative="1" as="geometry" />
        </mxCell>
        <mxCell id="Nt39PZyozITzQ0mVq2fc-27" value="vxlan_xmit_one" style="rounded=1;whiteSpace=wrap;html=1;" vertex="1" parent="1">
          <mxGeometry x="740" y="220" width="120" height="40" as="geometry" />
        </mxCell>
        <mxCell id="Nt39PZyozITzQ0mVq2fc-28" value="udp_tunnel_xmit_skb" style="rounded=1;whiteSpace=wrap;html=1;" vertex="1" parent="1">
          <mxGeometry x="800" y="280" width="140" height="40" as="geometry" />
        </mxCell>
      </root>
    </mxGraphModel>
  </diagram>
</mxfile>
